<?xml version="1.0" encoding="UTF-8"?><svg id="Layer_1" xmlns="http://www.w3.org/2000/svg" viewBox="0 0 2765.58 640.56"><defs><style>.cls-1{fill:#f2efdf;}.cls-2{fill:#e69875;}.cls-3{stroke-width:20px;}.cls-3,.cls-4{fill:none;stroke:#232a2e;stroke-miterlimit:10;}.cls-4{stroke-width:22px;}.cls-5{fill:#619e45;}.cls-6{fill:#dbbc7f;}.cls-7{fill:#a7c080;}.cls-8{fill:#7fbbb3;}.cls-9{fill:#232a2e;font-family:Fraunces-9ptBlack, Fraunces;font-size:350px;font-variation-settings:'opsz' 9, 'wght' 900, 'SOFT' 0, 'WONK' 1;font-weight:800;}</style></defs><rect class="cls-1" width="2765.58" height="640.56"/><circle class="cls-8" cx="362.58" cy="314.35" r="221"/><path class="cls-2" d="M511.8,324.16c-35.59-2.53-148.82-43.37-170.36-54.13-24.54-12.25-75.14-23.61-84.82-24.92v-.24c29.06-.41,41.61-2.01,49.87-4.23,66.77-18.01,84.29-28,139.59-32.29,23.36-1.82,85.38,5.1,129.99,24.95,9.57,25.19,14.81,52.51,14.81,81.05,0,5.89-.22,11.73-.67,17.5-21.75-2.82-48.78-5.61-78.42-7.59v-.1Z"/><path class="cls-5" d="M590.21,331.85c-2.58,34.18-12.7,66.25-28.69,94.57-27.79-13.27-80.64-30.64-131.07-34.74-111.94-9.1-211.94,50.32-241.91,70.42h-.01c-22.63-26.63-39.26-58.53-47.79-93.6,54.99-16.7,139.83-37.9,223.24-44.53,48.89-3.88,101.54-2.79,147.81.29,29.64,1.98,56.67,4.77,78.42,7.59Z"/><path class="cls-6" d="M256.62,245.11c9.68,1.31,60.28,12.67,84.82,24.92,21.54,10.76,134.77,51.6,170.36,54.13v.1c-46.28-3.08-98.93-4.17-147.82-.29-83.41,6.63-168.25,27.83-223.24,44.53-4.22-17.36-6.46-35.49-6.46-54.15,0-24.19,3.76-47.5,10.73-69.38,13.77.32,47.49-.48,71.89-.16,15.71.2,28.61.21,39.29.07.15,0,.29,0,.43-.01v.24Z"/><path class="cls-7" d="M430.45,391.68c50.43,4.1,103.28,21.47,131.07,34.74-39.16,69.39-113.58,116.23-198.94,116.23-69.74,0-132.17-31.26-174.04-80.55,29.97-20.1,129.97-79.52,241.91-70.42Z"/><path class="cls-4" d="M188.53,462.1c-22.63-26.63-39.26-58.53-47.79-93.6-4.22-17.36-6.46-35.49-6.46-54.15,0-24.19,3.76-47.5,10.73-69.38,29.37-92.17,115.67-158.92,217.57-158.92s180.8,61.17,213.49,147.25c9.57,25.19,14.81,52.51,14.81,81.05,0,5.89-.22,11.73-.67,17.5-2.58,34.18-12.7,66.25-28.69,94.57-39.16,69.39-113.58,116.23-198.94,116.23-69.74,0-132.17-31.26-174.04-80.55"/><path class="cls-4" d="M561.52,426.42c-27.79-13.27-80.64-30.64-131.07-34.74-111.94-9.1-211.94,50.32-241.91,70.42h-.01"/><path class="cls-3" d="M140.74,368.5c54.99-16.7,139.83-37.9,223.24-44.53,48.89-3.88,101.54-2.79,147.81.29,29.64,1.98,56.67,4.77,78.42,7.59.23.03.45.06.67.09"/><path class="cls-4" d="M576.08,233.3h-.01c-44.61-19.85-106.63-26.77-129.99-24.95-55.3,4.29-72.82,14.28-139.59,32.29-8.26,2.22-20.81,3.82-49.87,4.23-.14.01-.28.01-.43.01-10.68.14-23.58.13-39.29-.07-24.4-.32-58.12.48-71.89.16"/><path class="cls-3" d="M512.63,324.21c-.27-.02-.55-.03-.83-.05-35.59-2.53-148.82-43.37-170.36-54.13-24.54-12.25-75.14-23.61-84.82-24.92-.15-.03-.3-.04-.43-.06"/><text class="cls-9" transform="translate(639.16 440.54)"><tspan x="0" y="0">Neverglade</tspan></text></svg>