<?xml version="1.0" encoding="UTF-8"?><svg id="Layer_1" xmlns="http://www.w3.org/2000/svg" viewBox="0 0 3338.01 1189.16"><defs><style>.cls-1{fill:#f2efdf;}.cls-2{fill:#e69875;}.cls-3{stroke-width:20px;}.cls-3,.cls-4{fill:none;stroke:#232a2e;stroke-miterlimit:10;}.cls-4{stroke-width:22px;}.cls-5{fill:#619e45;}.cls-6{fill:#dbbc7f;}.cls-7{fill:#a7c080;}.cls-8{fill:#7fbbb3;}.cls-9{fill:#232a2e;font-family:Fraunces-9ptBlack, Fraunces;font-size:350px;font-variation-settings:'opsz' 9, 'wght' 900, 'SOFT' 0, 'WONK' 1;font-weight:800;}</style></defs><circle class="cls-8" cx="239.3" cy="242.47" r="221"/><path class="cls-2" d="M452.79,161.42c9.57,25.19,14.81,52.51,14.81,81.05,0,5.89-.22,11.73-.67,17.5-21.75-2.82-48.78-5.61-78.42-7.59v-.1c-35.58-2.53-148.81-43.37-170.35-54.13-24.54-12.25-75.14-23.61-84.82-24.93v-.23c29.06-.41,41.61-2.01,49.87-4.23,66.77-18.01,84.29-28,139.59-32.29,23.36-1.82,85.38,5.1,129.99,24.95Z"/><path class="cls-6" d="M133.34,173.22c9.68,1.32,60.28,12.68,84.82,24.93,21.54,10.76,134.77,51.6,170.36,54.13v.1c-46.28-3.08-98.93-4.17-147.82-.29-83.41,6.63-168.25,27.83-223.24,44.53-4.22-17.36-6.46-35.49-6.46-54.15,0-24.19,3.76-47.5,10.73-69.38,13.77.32,47.49-.48,71.89-.16,15.71.2,28.61.21,39.29.07.15,0,.29,0,.43,0v.23Z"/><path class="cls-7" d="M65.26,390.22c29.97-20.1,129.97-79.52,241.91-70.42,50.43,4.1,103.28,21.47,131.07,34.74-39.16,69.39-113.58,116.23-198.94,116.23-69.74,0-132.17-31.26-174.04-80.55Z"/><path class="cls-5" d="M466.93,259.97c-2.58,34.18-12.7,66.25-28.69,94.57-27.79-13.27-80.64-30.64-131.07-34.74-111.94-9.1-211.94,50.32-241.91,70.42h-.01c-22.63-26.63-39.26-58.53-47.79-93.6,54.99-16.7,139.83-37.9,223.24-44.53,48.89-3.88,101.54-2.79,147.81.29,29.64,1.98,56.67,4.77,78.42,7.59Z"/><path class="cls-4" d="M65.25,390.22c-22.63-26.63-39.26-58.53-47.79-93.6-4.22-17.36-6.46-35.49-6.46-54.15,0-24.19,3.76-47.5,10.73-69.38C51.1,80.92,137.4,14.17,239.3,14.17s180.8,61.17,213.49,147.25c9.57,25.19,14.81,52.51,14.81,81.05,0,5.89-.22,11.73-.67,17.5-2.58,34.18-12.7,66.25-28.69,94.57-39.16,69.39-113.58,116.23-198.94,116.23-69.74,0-132.17-31.26-174.04-80.55"/><path class="cls-4" d="M438.24,354.54c-27.79-13.27-80.64-30.64-131.07-34.74-111.94-9.1-211.94,50.32-241.91,70.42h-.01"/><path class="cls-3" d="M17.46,296.62c54.99-16.7,139.83-37.9,223.24-44.53,48.89-3.88,101.54-2.79,147.81.29,29.64,1.98,56.67,4.77,78.42,7.59.23.03.45.06.67.09"/><path class="cls-4" d="M452.8,161.42h0c-44.61-19.85-106.63-26.77-129.99-24.95-55.3,4.29-72.82,14.28-139.59,32.29-8.26,2.22-20.81,3.82-49.87,4.23-.14,0-.28,0-.43,0-10.68.14-23.58.13-39.29-.07-24.4-.32-58.12.48-71.89.16"/><path class="cls-3" d="M389.35,252.33c-.27-.02-.55-.03-.83-.05-35.59-2.53-148.82-43.37-170.36-54.13-24.54-12.25-75.14-23.61-84.82-24.93-.15-.02-.3-.03-.43-.05"/><circle class="cls-8" cx="757.67" cy="239.3" r="221"/><path class="cls-5" d="M985.3,256.8c-2.58,34.18-12.7,66.25-28.69,94.57-27.79-13.27-80.64-30.64-131.07-34.74-111.94-9.1-211.94,50.32-241.91,70.42h-.01c-22.63-26.63-39.26-58.53-47.79-93.6,54.99-16.7,139.83-37.9,223.24-44.53,48.89-3.88,101.54-2.79,147.81.29,29.64,1.98,56.67,4.77,78.42,7.59Z"/><path class="cls-2" d="M971.16,158.25c9.57,25.19,14.81,52.51,14.81,81.05,0,5.89-.22,11.73-.67,17.5-21.75-2.82-48.78-5.61-78.42-7.59v-.1c-35.58-2.53-148.81-43.37-170.35-54.13-24.54-12.25-75.14-23.61-84.82-24.92v-.24c29.06-.41,41.61-2.01,49.87-4.23,66.77-18.01,84.29-28,139.59-32.29,23.36-1.82,85.38,5.1,129.99,24.95Z"/><path class="cls-6" d="M651.71,170.06c9.68,1.31,60.28,12.67,84.82,24.92,21.54,10.76,134.77,51.6,170.36,54.13v.1c-46.28-3.08-98.93-4.17-147.82-.29-83.41,6.63-168.25,27.83-223.24,44.53-4.22-17.36-6.46-35.49-6.46-54.15,0-24.19,3.76-47.5,10.73-69.38,13.77.32,47.49-.48,71.89-.16,15.71.2,28.61.21,39.29.07.15,0,.29,0,.43,0v.24Z"/><path class="cls-7" d="M583.63,387.05c29.97-20.1,129.97-79.52,241.91-70.42,50.43,4.1,103.28,21.47,131.07,34.74-39.16,69.39-113.58,116.23-198.94,116.23-69.74,0-132.17-31.26-174.04-80.55Z"/><path class="cls-4" d="M583.62,387.05c-22.63-26.63-39.26-58.53-47.79-93.6-4.22-17.36-6.46-35.49-6.46-54.15,0-24.19,3.76-47.5,10.73-69.38,29.37-92.17,115.67-158.92,217.57-158.92s180.8,61.17,213.49,147.25c9.57,25.19,14.81,52.51,14.81,81.05,0,5.89-.22,11.73-.67,17.5-2.58,34.18-12.7,66.25-28.69,94.57-39.16,69.39-113.58,116.23-198.94,116.23-69.74,0-132.17-31.26-174.04-80.55"/><path class="cls-4" d="M956.61,351.37c-27.79-13.27-80.64-30.64-131.07-34.74-111.94-9.1-211.94,50.32-241.91,70.42h-.01"/><path class="cls-3" d="M535.83,293.45c54.99-16.7,139.83-37.9,223.24-44.53,48.89-3.88,101.54-2.79,147.81.29,29.64,1.98,56.67,4.77,78.42,7.59.23.03.45.06.67.09"/><path class="cls-4" d="M971.17,158.25h0c-44.61-19.85-106.63-26.77-129.99-24.95-55.3,4.29-72.82,14.28-139.59,32.29-8.26,2.22-20.81,3.82-49.87,4.23-.14,0-.28,0-.43,0-10.68.14-23.58.13-39.29-.07-24.4-.32-58.12.48-71.89.16"/><path class="cls-3" d="M907.72,249.16c-.27-.02-.55-.03-.83-.05-35.59-2.53-148.82-43.37-170.36-54.13-24.54-12.25-75.14-23.61-84.82-24.92-.15-.03-.3-.04-.43-.06"/><text class="cls-9" transform="translate(1034.25 365.49)"><tspan x="0" y="0">Neverglade</tspan></text><rect class="cls-1" x="517" y="548.6" width="2765.58" height="640.56"/><circle class="cls-8" cx="879.58" cy="862.94" r="221"/><path class="cls-2" d="M1028.8,872.76c-35.59-2.53-148.82-43.37-170.36-54.13-24.54-12.25-75.14-23.61-84.82-24.92v-.24c29.06-.41,41.61-2.01,49.87-4.23,66.77-18.01,84.29-28,139.59-32.29,23.36-1.82,85.38,5.1,129.99,24.95,9.57,25.19,14.81,52.51,14.81,81.05,0,5.89-.22,11.73-.67,17.5-21.75-2.82-48.78-5.61-78.42-7.59v-.1Z"/><path class="cls-5" d="M1107.21,880.45c-2.58,34.18-12.7,66.25-28.69,94.57-27.79-13.27-80.64-30.64-131.07-34.74-111.94-9.1-211.94,50.32-241.91,70.42h-.01c-22.63-26.63-39.26-58.53-47.79-93.6,54.99-16.7,139.83-37.9,223.24-44.53,48.89-3.88,101.54-2.79,147.81.29,29.64,1.98,56.67,4.77,78.42,7.59Z"/><path class="cls-6" d="M773.62,793.71c9.68,1.31,60.28,12.67,84.82,24.92,21.54,10.76,134.77,51.6,170.36,54.13v.1c-46.28-3.08-98.93-4.17-147.82-.29-83.41,6.63-168.25,27.83-223.24,44.53-4.22-17.36-6.46-35.49-6.46-54.15,0-24.19,3.76-47.5,10.73-69.38,13.77.32,47.49-.48,71.89-.16,15.71.2,28.61.21,39.29.07.15,0,.29,0,.43-.01v.24Z"/><path class="cls-7" d="M947.45,940.28c50.43,4.1,103.28,21.47,131.07,34.74-39.16,69.39-113.58,116.23-198.94,116.23-69.74,0-132.17-31.26-174.04-80.55,29.97-20.1,129.97-79.52,241.91-70.42Z"/><path class="cls-4" d="M705.53,1010.7c-22.63-26.63-39.26-58.53-47.79-93.6-4.22-17.36-6.46-35.49-6.46-54.15,0-24.19,3.76-47.5,10.73-69.38,29.37-92.17,115.67-158.92,217.57-158.92s180.8,61.17,213.49,147.25c9.57,25.19,14.81,52.51,14.81,81.05,0,5.89-.22,11.73-.67,17.5-2.58,34.18-12.7,66.25-28.69,94.57-39.16,69.39-113.58,116.23-198.94,116.23-69.74,0-132.17-31.26-174.04-80.55"/><path class="cls-4" d="M1078.52,975.02c-27.79-13.27-80.64-30.64-131.07-34.74-111.94-9.1-211.94,50.32-241.91,70.42h-.01"/><path class="cls-3" d="M657.74,917.1c54.99-16.7,139.83-37.9,223.24-44.53,48.89-3.88,101.54-2.79,147.81.29,29.64,1.98,56.67,4.77,78.42,7.59.23.03.45.06.67.09"/><path class="cls-4" d="M1093.08,781.9h-.01c-44.61-19.85-106.63-26.77-129.99-24.95-55.3,4.29-72.82,14.28-139.59,32.29-8.26,2.22-20.81,3.82-49.87,4.23-.14.01-.28.01-.43.01-10.68.14-23.58.13-39.29-.07-24.4-.32-58.12.48-71.89.16"/><path class="cls-3" d="M1029.63,872.81c-.27-.02-.55-.03-.83-.05-35.59-2.53-148.82-43.37-170.36-54.13-24.54-12.25-75.14-23.61-84.82-24.92-.15-.03-.3-.04-.43-.06"/><text class="cls-9" transform="translate(1156.16 989.13)"><tspan x="0" y="0">Neverglade</tspan></text></svg>